<svg width="174" height="26" viewBox="0 0 174 26" fill="none" xmlns="http://www.w3.org/2000/svg" xmlns:xlink="http://www.w3.org/1999/xlink" xmlns:bx="https://boxy-svg.com">
  <defs>
    <path id="path-0" style="fill: none;" d="M 62.62692549390825 14.28440043132061 L 102.08736550220513 34.62492691443174"/>
    <path id="path-1" style="fill: none;" d="M 68.28467622638627 9.456825207060717 L -24.404864306615252 -17.31768238695607"/>
    <path id="path-2" style="fill: none;" d="M 58.074 17.109 C 73.769 20.901 84.705 25.35 92.443 22.261 C 101.271 20.75 108.387 19.593 116.177 19.593 C 127.969 19.038 136.836 19.282 145.649 18.613 C 155.156 18.782 161.891 19.476 167.819 18.447 L 169.015 18.326 C 171.459 18.122 174.04 17.758 176.453 17.758"/>
  </defs>
  <path d="M 45.995 60.195 L 45.995 42.315 L 49.115 42.315 L 55.811 51.411 L 54.323 51.411 L 60.875 42.315 L 63.995 42.315 L 63.995 60.195 L 60.707 60.195 L 60.707 46.035 L 61.979 46.347 L 55.187 55.395 L 54.803 55.395 L 48.179 46.347 L 49.259 46.035 L 49.259 60.195 L 45.995 60.195 Z M 73.537 60.483 C 72.257 60.483 71.089 60.187 70.033 59.595 C 68.993 59.003 68.161 58.195 67.537 57.171 C 66.929 56.147 66.625 54.979 66.625 53.667 C 66.625 52.355 66.929 51.187 67.537 50.163 C 68.161 49.139 68.993 48.331 70.033 47.739 C 71.073 47.147 72.241 46.851 73.537 46.851 C 74.817 46.851 75.977 47.147 77.017 47.739 C 78.057 48.331 78.881 49.139 79.489 50.163 C 80.113 51.171 80.425 52.339 80.425 53.667 C 80.425 54.979 80.113 56.147 79.489 57.171 C 78.865 58.195 78.033 59.003 76.993 59.595 C 75.953 60.187 74.801 60.483 73.537 60.483 Z M 73.537 57.603 C 74.241 57.603 74.857 57.435 75.385 57.099 C 75.929 56.763 76.353 56.299 76.657 55.707 C 76.977 55.099 77.137 54.419 77.137 53.667 C 77.137 52.899 76.977 52.227 76.657 51.651 C 76.353 51.059 75.929 50.595 75.385 50.259 C 74.857 49.907 74.241 49.731 73.537 49.731 C 72.817 49.731 72.185 49.907 71.641 50.259 C 71.097 50.595 70.665 51.059 70.345 51.651 C 70.041 52.227 69.889 52.899 69.889 53.667 C 69.889 54.419 70.041 55.099 70.345 55.707 C 70.665 56.299 71.097 56.763 71.641 57.099 C 72.185 57.435 72.817 57.603 73.537 57.603 Z M 88.881 60.483 C 87.617 60.483 86.489 60.187 85.497 59.595 C 84.505 58.987 83.721 58.163 83.145 57.123 C 82.569 56.083 82.281 54.931 82.281 53.667 C 82.281 52.387 82.569 51.235 83.145 50.211 C 83.721 49.187 84.505 48.371 85.497 47.763 C 86.505 47.155 87.625 46.851 88.857 46.851 C 89.849 46.851 90.729 47.051 91.497 47.451 C 92.281 47.835 92.897 48.379 93.345 49.083 L 92.865 49.731 L 92.865 42.027 L 96.009 42.027 L 96.009 60.195 L 93.033 60.195 L 93.033 57.675 L 93.369 58.299 C 92.921 59.003 92.297 59.547 91.497 59.931 C 90.697 60.299 89.825 60.483 88.881 60.483 Z M 89.217 57.603 C 89.937 57.603 90.569 57.435 91.113 57.099 C 91.657 56.763 92.081 56.299 92.385 55.707 C 92.705 55.115 92.865 54.435 92.865 53.667 C 92.865 52.915 92.705 52.243 92.385 51.651 C 92.081 51.043 91.657 50.571 91.113 50.235 C 90.569 49.899 89.937 49.731 89.217 49.731 C 88.513 49.731 87.881 49.907 87.321 50.259 C 86.761 50.595 86.321 51.059 86.001 51.651 C 85.697 52.227 85.545 52.899 85.545 53.667 C 85.545 54.435 85.697 55.115 86.001 55.707 C 86.321 56.299 86.761 56.763 87.321 57.099 C 87.881 57.435 88.513 57.603 89.217 57.603 Z M 105.126 60.483 C 103.782 60.483 102.606 60.179 101.598 59.571 C 100.59 58.963 99.806 58.139 99.246 57.099 C 98.686 56.059 98.406 54.907 98.406 53.643 C 98.406 52.331 98.686 51.171 99.246 50.163 C 99.822 49.139 100.598 48.331 101.574 47.739 C 102.566 47.147 103.67 46.851 104.886 46.851 C 105.91 46.851 106.806 47.019 107.574 47.355 C 108.358 47.691 109.022 48.155 109.566 48.747 C 110.11 49.339 110.526 50.019 110.814 50.787 C 111.102 51.539 111.246 52.355 111.246 53.235 C 111.246 53.459 111.23 53.691 111.198 53.931 C 111.182 54.171 111.142 54.379 111.078 54.555 L 100.998 54.555 L 100.998 52.155 L 109.302 52.155 L 107.814 53.283 C 107.958 52.547 107.918 51.891 107.694 51.315 C 107.486 50.739 107.134 50.283 106.638 49.947 C 106.158 49.611 105.574 49.443 104.886 49.443 C 104.23 49.443 103.646 49.611 103.134 49.947 C 102.622 50.267 102.23 50.747 101.958 51.387 C 101.702 52.011 101.606 52.771 101.67 53.667 C 101.606 54.467 101.71 55.179 101.982 55.803 C 102.27 56.411 102.686 56.883 103.23 57.219 C 103.79 57.555 104.43 57.723 105.15 57.723 C 105.87 57.723 106.478 57.571 106.974 57.267 C 107.486 56.963 107.886 56.555 108.174 56.043 L 110.718 57.291 C 110.462 57.915 110.062 58.467 109.518 58.947 C 108.974 59.427 108.326 59.803 107.574 60.075 C 106.838 60.347 106.022 60.483 105.126 60.483 Z M 113.629 60.195 L 113.629 47.139 L 116.581 47.139 L 116.581 50.043 L 116.341 49.611 C 116.645 48.635 117.117 47.955 117.757 47.571 C 118.413 47.187 119.197 46.995 120.109 46.995 L 120.877 46.995 L 120.877 49.779 L 119.749 49.779 C 118.853 49.779 118.133 50.059 117.589 50.619 C 117.045 51.163 116.773 51.931 116.773 52.923 L 116.773 60.195 L 113.629 60.195 Z M 122.606 60.195 L 122.606 47.139 L 125.558 47.139 L 125.558 49.707 L 125.318 49.251 C 125.622 48.467 126.118 47.875 126.806 47.475 C 127.51 47.059 128.326 46.851 129.254 46.851 C 130.214 46.851 131.062 47.059 131.798 47.475 C 132.55 47.891 133.134 48.475 133.55 49.227 C 133.966 49.963 134.174 50.819 134.174 51.795 L 134.174 60.195 L 131.03 60.195 L 131.03 52.539 C 131.03 51.963 130.918 51.467 130.694 51.051 C 130.47 50.635 130.158 50.315 129.758 50.091 C 129.374 49.851 128.918 49.731 128.39 49.731 C 127.878 49.731 127.422 49.851 127.022 50.091 C 126.622 50.315 126.31 50.635 126.086 51.051 C 125.862 51.467 125.75 51.963 125.75 52.539 L 125.75 60.195 L 122.606 60.195 Z M 136.832 60.195 L 136.832 47.139 L 139.976 47.139 L 139.976 60.195 L 136.832 60.195 Z M 136.832 45.675 L 136.832 42.315 L 139.976 42.315 L 139.976 45.675 L 136.832 45.675 Z M 141.751 60.195 L 141.751 57.651 L 149.335 48.867 L 149.815 49.947 L 142.087 49.947 L 142.087 47.139 L 152.599 47.139 L 152.599 49.707 L 145.159 58.491 L 144.679 57.411 L 152.647 57.411 L 152.647 60.195 L 141.751 60.195 Z M 160.626 60.483 C 159.282 60.483 158.106 60.179 157.098 59.571 C 156.09 58.963 155.306 58.139 154.746 57.099 C 154.186 56.059 153.906 54.907 153.906 53.643 C 153.906 52.331 154.186 51.171 154.746 50.163 C 155.322 49.139 156.098 48.331 157.074 47.739 C 158.066 47.147 159.17 46.851 160.386 46.851 C 161.41 46.851 162.306 47.019 163.074 47.355 C 163.858 47.691 164.522 48.155 165.066 48.747 C 165.61 49.339 166.026 50.019 166.314 50.787 C 166.602 51.539 166.746 52.355 166.746 53.235 C 166.746 53.459 166.73 53.691 166.698 53.931 C 166.682 54.171 166.642 54.379 166.578 54.555 L 156.498 54.555 L 156.498 52.155 L 164.802 52.155 L 163.314 53.283 C 163.458 52.547 163.418 51.891 163.194 51.315 C 162.986 50.739 162.634 50.283 162.138 49.947 C 161.658 49.611 161.074 49.443 160.386 49.443 C 159.73 49.443 159.146 49.611 158.634 49.947 C 158.122 50.267 157.73 50.747 157.458 51.387 C 157.202 52.011 157.106 52.771 157.17 53.667 C 157.106 54.467 157.21 55.179 157.482 55.803 C 157.77 56.411 158.186 56.883 158.73 57.219 C 159.29 57.555 159.93 57.723 160.65 57.723 C 161.37 57.723 161.978 57.571 162.474 57.267 C 162.986 56.963 163.386 56.555 163.674 56.043 L 166.218 57.291 C 165.962 57.915 165.562 58.467 165.018 58.947 C 164.474 59.427 163.826 59.803 163.074 60.075 C 162.338 60.347 161.522 60.483 160.626 60.483 Z" fill="#11142D"/>
  <path d="M20.1369 26C22.8983 26 25.1842 23.7425 24.6732 21.0288C24.3528 19.3274 23.8679 17.6594 23.2235 16.0502C21.9602 12.8958 20.1087 10.0295 17.7745 7.61522C15.4403 5.2009 12.6692 3.28575 9.61949 1.97913C8.11383 1.33406 6.55481 0.843538 4.96489 0.512196C2.26154 -0.0511821 0 2.23858 0 5V21C0 23.7614 2.23858 26 5 26H20.1369Z" fill="#615DFF"/>
  <g style="mix-blend-mode:multiply">
    <path d="M13.7013 26C10.9399 26 8.65395 23.7425 9.16502 21.0288C9.48544 19.3274 9.97031 17.6594 10.6147 16.0502C11.878 12.8958 13.7295 10.0295 16.0637 7.61522C18.3979 5.2009 21.169 3.28575 24.2187 1.97913C25.7244 1.33406 27.2834 0.843538 28.8733 0.512196C31.5767 -0.0511821 33.8382 2.23858 33.8382 5V21C33.8382 23.7614 31.5996 26 28.8382 26H13.7013Z" fill="#3DD9EB"/>
  </g>
  <text style="fill: rgb(51, 51, 51); font-family: Arial, sans-serif; font-size: 28px; white-space: pre;"><textPath xlink:href="#path-1"> </textPath></text>
  <text style="fill: rgb(51, 51, 51); font-family: Arial, sans-serif; font-size: 28px; white-space: pre;"><textPath xlink:href="#path-2"> </textPath></text>
  <text style="white-space: pre; fill: rgb(51, 51, 51); font-family: Arial, sans-serif; font-size: 28px;" x="103.544" y="70.466"> </text>
  <text style="fill: rgb(0, 0, 0); font-family: 'Plus Jakarta Sans'; font-size: 28px; font-weight: 706; letter-spacing: 2px; white-space: pre;" transform="matrix(0.613797, 0, 0, 0.688787, 27.424744, 4.491135)" x="26.448" y="23.507">VieGuarantee</text>
</svg>
